<?xml version="1.0" encoding="utf-8"?>
<!-- Generator: Adobe Illustrator 22.1.0, SVG Export Plug-In . SVG Version: 6.00 Build 0)  -->
<svg version="1.1" id="f557f327-f18a-4117-b611-648a13f47aad"
	 xmlns="http://www.w3.org/2000/svg" xmlns:xlink="http://www.w3.org/1999/xlink" x="0px" y="0px" viewBox="0 0 1156 853.9"
	 style="enable-background:new 0 0 1156 853.9;" xml:space="preserve">
<style type="text/css">
	.st0{fill:#F6D9CA;}
</style>
<title>jason mask</title>
<path class="st0" d="M670.7,140.8c-74.1-2.9-144.7-29.2-212.1-58.1S324.4,21.8,252.1,6.5c-46.5-9.9-99.7-11.2-137.2,16.3
	c-36.1,26.5-47.7,72.2-54,114.7c-4.7,31.9-7.5,65.5,5.4,95.4c9,20.7,24.9,38.2,35.9,58.1c38.3,69.1,11.2,154.4-30.3,222
	c-19.5,31.7-42.1,61.9-57.1,95.6s-22,72.3-8.8,106.7c13,34.1,44.1,59.7,77.8,77.7c68.4,36.6,148.9,47,227.4,53
	c173.9,13.1,348.6,7.4,522.9,1.8c64.5-2.1,129.3-4.2,192.8-15.3c35.2-6.1,71.6-15.8,97.2-39.2c32.5-29.7,40.5-80.1,18.8-117.4
	c-36.5-62.5-137.4-78.1-163-145.2c-14-37,0.4-78.1,20.8-112.4c43.8-73.5,117.2-138,121-222c2.7-57.7-32.6-115.5-87.2-142.8
	c-57.2-28.6-136.5-25-178.7,22.4C812.4,124.5,736.1,143.3,670.7,140.8z"/>
</svg>
