<?xml version="1.0" encoding="utf-8"?>
<!-- Generator: Adobe Illustrator 22.1.0, SVG Export Plug-In . SVG Version: 6.00 Build 0)  -->
<svg version="1.1" id="레이어_1" xmlns="http://www.w3.org/2000/svg" xmlns:xlink="http://www.w3.org/1999/xlink" x="0px"
	 y="0px" viewBox="0 0 297.3 220" style="enable-background:new 0 0 297.3 220;" xml:space="preserve">
<style type="text/css">
	.st0{fill:#FFFFFF;stroke:#000000;stroke-width:3;stroke-miterlimit:10;}
	.st1{fill:none;}
	.st2{fill:none;stroke:#000000;stroke-width:2;stroke-miterlimit:10;}
	.st3{fill:#F6D9CA;}
	.st4{fill:none;stroke:#000000;stroke-width:3;stroke-miterlimit:10;}
</style>
<g id="Layer_1">
</g>
<g id="Layer_2">
	<g>
		<g>
			<path class="st0" d="M147.4,184.9V32.6c0-0.8,0.5-1.5,1.2-1.6c6-0.5,33.3-2.7,57.6-2.6c28.2,0.1,48.2,4.9,52.8,6.1
				c0.6,0.2,1,0.8,1,1.6l0,0c0,0.7,0.4,1.4,1,1.6c1.2,0.4,2.3,0.7,3,0.8c0.6,0.2,1,0.8,1,1.6L263.8,195c0,1-0.8,1.8-1.6,1.6
				c-6.2-1.7-30.2-7.7-53.1-8.5c-26.6-1-46.1,4.9-49.7,6.1c-0.4,0.1-0.7,0.5-0.8,0.9l-1.2,3.2c-1.2,3.4-3.9,5.8-6.9,6.2
				c-1.5,0.2-2.8,0.3-3.1,0.4c-0.1,0-0.1,0-0.2,0c-0.3,0-1.6-0.2-3.1-0.4c-3-0.4-5.6-2.7-6.9-6.2l-1.2-3.2c-0.2-0.4-0.5-0.8-0.8-0.9
				c-3.6-1.2-23.1-7.1-49.7-6.1c-22.9,0.9-46.9,6.9-53.1,8.5c-0.8,0.2-1.6-0.5-1.6-1.6L29.7,40c0-0.8,0.4-1.4,1-1.6
				c0.7-0.2,1.7-0.5,3-0.8c0.6-0.2,1-0.8,1-1.6l0,0c0-0.8,0.4-1.4,1-1.6c4.6-1.2,24.7-5.9,52.8-6.1c24.3-0.1,51.6,2.1,57.6,2.6
				c0.7,0.1,1.2,0.8,1.2,1.6L147.4,184.9"/>
			<g>
				<line class="st1" x1="259.7" y1="37.3" x2="259.7" y2="109.7"/>
				<polygon points="260,109.7 260.5,37.3 258.9,37.3 259.4,109.7 				"/>
			</g>
		</g>
		<g>
			<path class="st0" d="M201.4,20.8c-28.1,0-54,10.3-54,10.3s-25.9-10.3-54-10.3c-28,0-48,6.1-52.9,7.7c-0.7,0.2-1.1,1-1.1,1.8
				v152.2c0,1.2,0.9,2.1,1.9,1.9c6.3-1.9,27.3-7.5,52.1-7.5c29.6,0,54,8.1,54,8.1s24.4-8.1,54-8.1c24.8,0,45.8,5.6,52.1,7.5
				c1,0.3,1.9-0.6,1.9-1.9V30.3c0-0.9-0.5-1.6-1.1-1.8C249.4,26.9,229.4,20.8,201.4,20.8z"/>
			<line class="st2" x1="147.4" y1="31.1" x2="147.4" y2="184.9"/>
		</g>
		<g>
			<path class="st0" d="M107.9,98.1c0,0-0.5-5.1-2.9-9.5c-3.3-5.9-2.4-4.3-2.4-4.3"/>
			<g>
				<path class="st0" d="M80.3,53.3l15.4,7.2c6.2,2.3,9.8,10.4,8.2,18.1l-1.2,5.6l-4,1.4C92,87.9,85.2,83,83.3,75.4L80.3,53.3z"/>
				<line class="st2" x1="102.6" y1="84.2" x2="80.3" y2="53.3"/>
				<line class="st2" x1="90.5" y1="67.3" x2="89.3" y2="57.4"/>
				<line class="st2" x1="99.1" y1="79.4" x2="96.9" y2="61"/>
				<line class="st2" x1="95.5" y1="74.7" x2="83.7" y2="76.7"/>
			</g>
		</g>
		<g>
			<g>
				<g>
					<path class="st2" d="M52.2,133.5c26.6-5.5,54-5.5,80.6,0"/>
					<path class="st2" d="M52.2,145.2c26.6-5.5,54-5.5,80.6,0"/>
					<path class="st2" d="M52.2,156.8c26.6-5.5,54-5.5,80.6,0"/>
					<path class="st2" d="M52.2,121.9c26.6-5.5,54-5.5,80.6,0"/>
				</g>
				<path class="st2" d="M131.2,106.8c-25.5-5.1-51.8-5-77.3,0c0-18.3,0-36.6,0-54.9c25.5-5.1,51.8-5.1,77.3,0
					C131.2,70.3,131.2,88.6,131.2,106.8z"/>
			</g>
		</g>
		<g>
			<g>
				<g>
					<path class="st2" d="M161.6,131.2c12.4-2.6,24.9-3.9,37.5-4.1"/>
					<path class="st2" d="M161.6,119c12.4-2.6,24.9-3.9,37.5-4.1"/>
					<path class="st2" d="M161.6,106.8c12.4-2.6,24.9-3.9,37.5-4.1"/>
					<path class="st2" d="M161.6,143.4c12.4-2.6,24.9-3.9,37.5-4.1"/>
					<path class="st2" d="M161.6,155.7c12.4-2.6,24.9-3.9,37.5-4.1"/>
				</g>
				<g>
					<path class="st2" d="M161.8,53.3c26.6-5.5,54-5.5,80.6,0"/>
					<path class="st2" d="M161.8,65c26.6-5.5,54-5.5,80.6,0"/>
					<path class="st2" d="M161.8,76.6c26.6-5.5,54-5.5,80.6,0"/>
					<path class="st2" d="M161.8,88.5c26.6-5.5,54-5.5,80.6,0"/>
				</g>
				<path class="st2" d="M206.7,156.7c0-18.8,0-37.7,0-56.5c11.4,0.3,22.9,1.5,34.2,3.8c0,18.8,0,37.7,0,56.5
					C229.5,158.2,218.1,157,206.7,156.7z"/>
			</g>
		</g>
		<g>
			<path class="st3" d="M241.7,96.3c-3.4-4.4-6.8-8.7-10.3-12.8c-3.4,4.1-6.9,8.4-10.3,12.8c0-24.8,0-49.6,0-74.4
				c6.8,0.3,13.7,1.3,20.6,3C241.7,48.6,241.7,72.5,241.7,96.3z"/>
			<path class="st4" d="M241.7,96.3c-3.4-4.4-6.8-8.7-10.3-12.8c-3.4,4.1-6.9,8.4-10.3,12.8c0-24.8,0-49.6,0-74.4
				c6.8,0.3,13.7,1.3,20.6,3C241.7,48.6,241.7,72.5,241.7,96.3z"/>
		</g>
	</g>
</g>
</svg>
