<?xml version="1.0" encoding="utf-8"?>
<!-- Generator: Adobe Illustrator 22.1.0, SVG Export Plug-In . SVG Version: 6.00 Build 0)  -->
<svg version="1.1" id="레이어_1" xmlns="http://www.w3.org/2000/svg" xmlns:xlink="http://www.w3.org/1999/xlink" x="0px"
	 y="0px" viewBox="0 0 192.3 179.6" style="enable-background:new 0 0 192.3 179.6;" xml:space="preserve">
<style type="text/css">
	.st0{display:none;}
	.st1{display:inline;}
	.st2{fill:#FFFFFF;stroke:#000000;stroke-width:3;stroke-miterlimit:10;}
	.st3{stroke:#000000;stroke-width:3;stroke-miterlimit:10;}
	.st4{fill:none;stroke:#000000;stroke-width:3;stroke-miterlimit:10;}
	.st5{fill:#FFFFFF;stroke:#000000;stroke-width:2;stroke-miterlimit:10;}
	.st6{fill:none;stroke:#000000;stroke-width:2;stroke-miterlimit:10;}
	.st7{display:inline;fill:#FFFFFF;stroke:#000000;stroke-width:3;stroke-miterlimit:10;}
	.st8{display:inline;fill:none;stroke:#000000;stroke-width:2;stroke-miterlimit:10;}
	.st9{display:none;fill:none;stroke:#000000;stroke-width:3;stroke-miterlimit:10;}
	.st10{display:none;fill:none;stroke:#000000;stroke-width:2;stroke-miterlimit:10;}
	.st11{fill:#FFFFFF;}
	.st12{fill:#F6D9CA;}
	.st13{fill:#F6D9CA;stroke:#000000;stroke-width:3;stroke-miterlimit:10;}
</style>
<g id="Layer_1" class="st0">
	<g class="st1">
		<path class="st2" d="M102.8,115.1c0-0.6,0.6-1.1,1.2-1c4,0.7,17,2.7,19.5,0.7c1.2-1,3.4-9.9,5.2-21.2c0.1-0.5,0.6-0.9,1.1-0.9
			l6.4-0.1c0.7,0,0.5-0.5,0.3-1.2l-5-21c0-0.2,0-0.3,0-0.5c0.8-11.7,0.6-22.3-1.9-26.5c-3.3-5.6-11.8-9.6-15.1-11.1
			c-5.9-2.6-16.1-5.1-23.4-5c-9.9,0-31.4,2.8-38.3,10c-5.5,5.8-10,22.8-9.9,30.9c0.2,8.1,6.3,28.2,6.9,30.2c0,0.1,0,0.2,0,0.4
			l-2.6,42.6c0,0.5-0.4,0.8-0.8,0.9L23,147.7c-1.1,0.2-1,1.7,0,2c0,0,0,0,0.1,0c13.4,3.3,36.2,14.7,58.2,14.7
			c19.3,0,30.3-10.4,39.8-14.2c0.7-0.3,1.4-0.5,2.2-0.6c1.1-0.2,1.2-1.8,0.1-2l-21.2-5.3c-0.5-0.1-0.8-0.6-0.8-1.1L102.8,115.1z"/>
		<path class="st2" d="M108.5,69c0,0,8.1,18.6,16.3,0"/>
		<path class="st3" d="M80.4,95.8c0,0-2.3,0-3.5-0.6c-1.6-0.7-3.6-1.6-5.1-3.8c-1.7-2.5-4.4-7.1-4-13.2c0.2-3.3,3.3-9.3,8.4-9.3
			c3.2,0,6.5,3.3,7.1,4c0.1,0.1,0.1,0.2,0.2,0.3l0.1,0.2c0.4,0.9,1.6,0.8,1.9-0.1l6.8-20.6c0.1-0.4,0.5-0.7,0.9-0.7l29.9-2.2
			c0.1,0,0.2,0,0.4-0.1c1.7-0.8,15.3-7.7,10.9-22.6c-4.6-15.2-17.8-12.3-22.1-11.1c-5.9,1.6-18.2,7-19.7,7.7c-0.1,0-0.2,0.1-0.3,0.1
			l-24.6,1.9c-0.1,0-0.2,0-0.4,0c-1.5-0.4-12-3.2-15.8-1.2c-2.2,1.2-4.3,7.7-4.8,9.4c-0.1,0.3-0.3,0.5-0.5,0.6
			c-1,0.6-3.9,2.2-4.7,3.7c-6.6,12.4,7.4,57.8,8.4,61c0,0.1,0.1,0.2,0,0.4l-0.7,11.3c-0.1,0.9,1.1,1.5,1.8,0.8l20.8-20.2"/>
		<path class="st4" d="M106.3,65.5c-0.7,0-1.2,0.6-1.2,1.3c0.1,3.3,0.4,12,2.7,14.5c3.1,3.4,13.6,4.7,17.3,0.2
			c2.3-2.8,2.6-11.6,2.6-11.6l0.1-3.1c0-0.7-0.5-1.3-1.2-1.3H106.3z"/>
		<line class="st4" x1="134.4" y1="69.9" x2="127.7" y2="69.9"/>
		<path class="st2" d="M131.4,107.1c-0.6,0.1-1,0.7-0.8,1.3l7,23.1c2,5.5,10.2,8.2,16.7,6.8l4.7-1c6.4-1.3,12.9-7,12.6-12.8l-2.6-24
			c-0.1-0.6-0.6-1-1.2-0.9L131.4,107.1z"/>
		<path class="st2" d="M172.6,101.4l-2.5,0.4c-0.5,0.1-0.9,0.6-0.9,1.1l2.1,19.9c0.1,0.7,0.7,1.1,1.3,0.9c1.3-0.4,3.3-1.2,4.3-2.7
			c1.3-1.9,3.9-11.9,2.6-16.6C178.5,100.3,172.6,101.4,172.6,101.4z"/>
		<path class="st5" d="M136.8,110.4c-0.6,0.1-1,0.7-0.9,1.3l5.1,18.9c1.5,4.2,7.9,5.3,13,4.2l3.8-0.8c5.3-1.1,10.5-4.5,10.3-9
			l-1.6-12.7c-0.1-0.6-0.6-1-1.1-0.9c-2.1,0.2-7,0.8-8.9,0.9c-3.6,0.2-14.2-2.4-17.7-2.2C138,110.3,137.3,110.3,136.8,110.4z"/>
		<path class="st2" d="M172.6,106.3l-2,0.3c-0.5,0.1-0.9,0.6-0.9,1.1l1,9.7c0.1,0.8,1,1.2,1.6,0.8c0.4-0.3,0.7-0.6,1-1
			c0.7-1.1,1.1-5.5,1.4-8.4C175,106.6,173.9,106.1,172.6,106.3z"/>
	</g>
</g>
<g id="Layer_2" class="st0">
	<g class="st1">
		<g>
			<path class="st2" d="M52.9,108.4c0,0,3.3-7.7,5.3-9.5c5.7-5.2,28.2-12.6,28.2-12.6l31.8-2.7l13.9-5.2c0.7-0.3,1.5,0.3,1.5,1.1
				c-0.2,3.1-0.7,9.5-2.1,11.6c-2,2.8-12,6.8-12,6.8l-12.9,3.5l7.2,12.9l-42.9,6"/>
			<path class="st2" d="M140.1,131.7l16.9-7.2c1.1-0.5,1.9-1.6,1.9-2.8v-30c0-0.8-0.3-1.6-0.8-2.1l-15.7-17.3
				c-0.5-0.5-1.4-0.5-1.8,0.1c-1.6,2.2-5.1,7.1-5.1,9.5c0,4.2,8.2,14.6,8.2,14.6l-0.1,17.2l-3.4,1.4"/>
			<path class="st2" d="M52.9,156.8l63.8-0.9c1.2,0,2.4-0.5,3.3-1.4l19-20.1c0.8-0.8,1.2-1.9,1.2-3v-23.8c0-2.2-1.7-4.1-3.9-4.4
				l-20.3-2c-1.9-0.2-3.8,0.9-4.5,2.7l-0.7,1.7c-0.7,1.7-2.3,2.8-4.1,2.8h-5.2c-1.6,0-3.1,0.9-3.8,2.3l-1.6,3
				c-0.8,1.4-2.2,2.3-3.8,2.3h-2.6c-2.2,0-4.1,1.7-4.4,3.9l-1.4,12.3c0,0.1-0.1,0.1-0.1,0.1s-14.9-6.8-21.7-10
				c-0.5-0.2-1.1-0.4-1.7-0.4c-2.1,0-7.4,0.7-7.4,0.7"/>
			<path class="st2" d="M92.2,115.9h15.7c1.1,0,2,0.7,2.3,1.7l8,26.8"/>
			<polyline class="st2" points="83.8,132.2 94.8,133.7 97.5,129.6 101.1,140.1 			"/>
			<path class="st2" d="M107.2,108.4h16c0.9,0,1.6,0.6,1.8,1.4l8.6,30.3"/>
			<g>
				<path class="st2" d="M51.4,165.7H17.6c-0.8,0-1.5-0.7-1.5-1.5v-61.6c0-0.8,0.7-1.5,1.5-1.5h33.8c0.8,0,1.5,0.7,1.5,1.5v61.6
					C52.9,165.1,52.2,165.7,51.4,165.7z"/>
				<circle class="st5" cx="44.5" cy="158.2" r="4.2"/>
				<circle class="st5" cx="33.5" cy="158.2" r="4.2"/>
			</g>
		</g>
		<g>
			<g>
				<path class="st2" d="M147.7,56.7c0,0-3.6,1-5,1.1c-1.9,0.1-8-0.4-8-0.4s2.7-3.3,3.7-4.1c0.9-0.7,3.8-2.3,3.8-2.3s-6.3-3-8.2-4.3
					c-1.9-1.2-4.9-4.3-4.9-4.3s4.5-1.2,6.8-0.9c2,0.2,7,1.2,7,1.2s-1.7-6.9-2-9.3c-0.5-3.5-0.3-13.9-0.3-13.9s5.5,6.8,7.1,9.2
					c1.2,1.8,4.1,8.2,4.1,8.2s4.4-6.5,6.1-8.4c2.1-2.3,9.2-8.7,9.2-8.7s-1.3,9.4-1.9,12.5c-0.5,2.4-3.6,9.5-3.6,9.5s7-1.1,9-1.2
					c3-0.1,11.9,0.7,11.9,0.7s-8.6,5.9-11.9,7.6c-2.1,1-8.5,3.7-8.5,3.7s3.1,2.5,4.2,3.8c1.7,2,3.9,7.3,3.9,7.3s-5.3-1.2-7.8-2.2
					c-1.7-0.7-6.7-3.6-6.7-3.6s0.3,3.7,0.2,4.8c-0.1,1.3-1.1,5-1.1,5s-3.6-4-4.5-5.5C149.3,60.9,147.7,56.7,147.7,56.7z"/>
				<line class="st6" x1="147.7" y1="56.7" x2="167" y2="19.8"/>
				<line class="st6" x1="151.7" y1="49" x2="182.4" y2="41.3"/>
				<line class="st6" x1="129.1" y1="42.4" x2="151.7" y2="49"/>
				<line class="st6" x1="151.7" y1="49" x2="140.6" y2="19.5"/>
			</g>
			<path class="st2" d="M134.3,80.2c0,0,3.1-8.4,5.9-13.1c2.6-4.6,7.6-10.4,7.6-10.4"/>
		</g>
		<g class="st0">
			<path class="st7" d="M134.1,84.6c0,0,1.4-7.2,1.7-12.8c0.4-7.4-0.4-12.8-0.4-12.8l-4.6-42.4c0-0.1-0.1-0.2,0,0l12.6,17.7
				c4.8,6.8,3.4,16.1-3.2,21.2l-4.8,3.7l0,0l0,0l-4.9-2c-8-3.3-11.8-12.5-8.4-20.4l8.7-20.1l0,0"/>
			<line class="st8" x1="133.1" y1="37.3" x2="138.5" y2="27.4"/>
			<line class="st8" x1="134.7" y1="52.7" x2="144.3" y2="35.7"/>
			<line class="st8" x1="134.3" y1="45.7" x2="121.3" y2="38.3"/>
		</g>
		<g>
			<path class="st2" d="M134.3,80.3c0,0-0.4-5.3-3.3-10c-3.9-6.3-6.4-8.5-6.4-8.5"/>
			<g>
				<path class="st2" d="M97.7,28.6l19.2,8.3c7.8,2.8,12,11.3,9.5,19.2l-1.8,5.7l-5.2,1.2c-8.4,1.9-16.8-3.4-19-11.5L97.7,28.6z"/>
				<line class="st6" x1="124.6" y1="61.7" x2="97.7" y2="28.6"/>
				<line class="st6" x1="110.1" y1="43.6" x2="109" y2="33.3"/>
				<line class="st6" x1="120.4" y1="56.5" x2="118.5" y2="37.5"/>
				<line class="st6" x1="116.1" y1="51.5" x2="100.9" y2="52.9"/>
			</g>
		</g>
	</g>
</g>
<g id="Layer_3">
	<path class="st9" d="M93.6,37L72.9,1.8c-1.5-2.5-5-2.5-6.5,0l-20,33.5"/>
	<path class="st9" d="M72.1,78.5h38.9c3.3,0,5.4-3.6,3.7-6.4L96.2,41"/>
	<g>
		<g>
			<g>
				<path class="st2" d="M135.4,138l0.1,9.7c0,0.8,0.7,1.4,1.4,1.4l33-0.4c0.8,0,1.4-0.7,1.4-1.4l-0.5-60c0-0.8-0.7-1.4-1.4-1.4
					l-33,0.4c-0.8,0-1.4,0.7-1.4,1.4l0.1,8.4"/>
				<path class="st2" d="M135.5,141.8"/>
				<path class="st2" d="M135.1,96.1"/>
				<path class="st5" d="M139.6,141.7"/>
				<path class="st5" d="M143.7,137.6"/>
				<circle class="st5" cx="154.4" cy="141.6" r="4.1"/>
			</g>
			<g>
				<path class="st2" d="M144.1,154.8l32.4-0.4c0.9,0,1.8-0.8,1.8-1.8l-0.6-59.5c0-0.9-0.8-1.8-1.8-1.8l-32.4,0.4
					c-0.9,0-1.8,0.8-1.8,1.8l0.6,59.5C142.3,154.1,143.1,154.8,144.1,154.8z"/>
				<circle class="st5" cx="150.5" cy="147.3" r="4.1"/>
				<circle class="st5" cx="161.2" cy="147.3" r="4.1"/>
			</g>
			<path class="st4" d="M135.1,93.3c0,0-7.6-11.1-11.4-13.1c-8.2-4.4-27.1-3.5-37.1-2.2c-6.2,0.8-25.1,10.5-25.1,10.5l-12.1,2.9
				c0,0,4.2,5.5,7.5,6.9c2.8,1.2,8.6,0.4,8.6,0.4l16-3.7c0.1,0,0.5,0,0.4,0.1l-11.2,8.9l-13.9,6.8L40,106.3l-8.2-9.9
				c-1.3-1.4-3.3-3-5-3H18c-1.1,0-1.8,1.2-1.2,2.1l4.7,8.5"/>
			<path class="st2" d="M17.3,103.8l-3.9-5.7c-0.2-0.5,0.1-0.9,0.6-0.9L24.6,97c2.5,0.2,4.4,2.9,5.6,5l6.8,11.6l18.6,6.5"/>
			<path class="st4" d="M46.7,150.7l-11.7-1.9c-1.8-0.4-3.3-1.4-4-3l-18.8-41.1c-0.2-0.6,0.2-1.3,0.9-1.3l8.3,0.6
				c3.4,0.2,6.4,2,8.2,4.9l3.7,6.3"/>
			<path class="st10" d="M35.3,122.7c0,0,5,9.1,4,11.6c-0.5,0.9-3.2,2-3.2,2"/>
			<path class="st10" d="M46.5,136.2c0,0,7.7,6.1,7.2,8.6c-0.2,1.1-3.9,2.2-3.9,2.2"/>
			<g id="XMLID_1_">
				<g>
					<path class="st11" d="M105.2,97.1c-6.9,4.4-13,9.3-13,9.3c-3,0.4-6.5,0.7-9.8,1.3c0.2-0.4,6.1-6.3,8.9-7.7
						C94.2,98.5,104,97.2,105.2,97.1z"/>
				</g>
				<g>
					<path class="st4" d="M142.2,137.1l-6.2,0.6l-46.4,18.2c-1.2,0.5-2.5,0.6-3.7,0.5l-37.7-5.3c-1.8-0.2-3.4-1.3-4.3-2.8
						l-12.6-20.9l-6-7.2c-0.5-0.6-0.2-1.5,0.5-1.9l5.3-2.2c3.6-1.5,7.8-0.7,10.6,1.9l7.4,6.8l6.7,10.4l27.7,0.9l7.9-8.1"/>
					<path class="st4" d="M141.8,100.9c0,0-15.2-11-21.1-10.7c-3.9,0.1-9.9,3.4-15.5,7.1c-6.9,4.4-13,9.3-13,9.3"/>
					<path class="st4" d="M82.3,107.7c3.4-0.5,6.8-0.9,9.8-1.3c5.5-0.6,9.7-0.9,9.7-0.9l8.3-3.3"/>
					<path class="st4" d="M119.3,125.4l-3.5,3.5c-1.3,1.3-3.2,2-5,1.8l-19.5-2.5l-18.6-2.3l-13.4,5.7c0,0-4.6-8.4-3.7-11.3
						c1.2-4.1,10-8.2,14.1-9.8c2.7-1.1,7.6-2,12.7-2.8"/>
					<path class="st6" d="M105.2,97.1L105.2,97.1c-1.2,0.1-11,1.4-14,2.9c-2.8,1.4-8.6,7.4-8.9,7.7l0,0"/>
				</g>
			</g>
			<path class="st6" d="M81.9,94.9c0,0,3.4,6.3,9.3,5.1"/>
			<path class="st10" d="M74.9,143c0,0,7.6-5,9.9-3.9c1.8,0.8,2.1,7.2,2.1,7.2"/>
		</g>
		<g>
			<path class="st12" d="M92,93.5l-64.3,0.1c-2.8-1.2-4-3.3-3.5-6.1L56.4,32c2.2-2,4.6-2.2,7.1,0l31.9,54.7
				C96.4,89.8,95.3,92.7,92,93.5z"/>
			<g>
				<g>
					<path class="st13" d="M44.9,73.5l-2.8-10.6c0-0.1-0.1-0.1-0.2,0L27.6,87.1c-0.9,1.6,0.2,3.7,2.1,3.7h28.8"/>
					<line class="st4" x1="42.1" y1="62.8" x2="31.8" y2="66.2"/>
				</g>
				<g>
					<path class="st13" d="M65.4,57L76,59.9c0.1,0,0.1-0.1,0.1-0.1L62.3,35.3c-0.9-1.6-3.3-1.6-4.2,0l-14.5,25"/>
					<line class="st4" x1="76.1" y1="59.8" x2="78.4" y2="49.3"/>
				</g>
				<g>
					<path class="st13" d="M69.8,82.5l-7.9,7.7c-0.1,0.1,0,0.2,0.1,0.2l28.1,0.5c1.9,0,3.2-2,2.2-3.6L78,62.2"/>
					<line class="st4" x1="61.9" y1="90.4" x2="69.8" y2="97.6"/>
				</g>
			</g>
		</g>
	</g>
</g>
</svg>
