<?xml version="1.0" encoding="utf-8"?>
<!-- Generator: Adobe Illustrator 22.0.1, SVG Export Plug-In . SVG Version: 6.00 Build 0)  -->
<svg version="1.1" xmlns="http://www.w3.org/2000/svg" xmlns:xlink="http://www.w3.org/1999/xlink" x="0px" y="0px"
	 viewBox="0 0 297.3 220" style="enable-background:new 0 0 297.3 220;" xml:space="preserve">
<style type="text/css">
	.st0{display:none;}
	.st1{display:inline;}
	.st2{fill:#FFFFFF;stroke:#000000;stroke-width:3;stroke-miterlimit:10;}
	.st3{fill:#FFFFFF;stroke:#000000;stroke-width:2;stroke-miterlimit:10;}
	.st4{display:inline;fill:none;stroke:#000000;stroke-width:5;stroke-miterlimit:10;}
	.st5{fill:none;stroke:#000000;stroke-width:3;stroke-miterlimit:10;}
	.st6{fill:#FFFFFF;stroke:#000000;stroke-miterlimit:10;}
	.st7{fill:#FFFFFF;}
	.st8{fill:none;stroke:#000000;stroke-width:2;stroke-miterlimit:10;}
</style>
<g id="Layer_1">
</g>
<g id="Layer_3">
	<path class="st2" d="M214.5,200.5h-136c-2.1,0-3.7-1.7-3.7-3.7V24.6c0-2.1,1.7-3.7,3.7-3.7h136c2.1,0,3.7,1.7,3.7,3.7v172.2
		C218.3,198.8,216.6,200.5,214.5,200.5z"/>
	<path class="st3" d="M205.9,193H86.6c-2.1,0-3.9-1.7-3.9-3.9v-148c0-2.1,1.7-3.9,3.9-3.9h119.3c2.1,0,3.9,1.7,3.9,3.9v148
		C209.8,191.3,208.1,193,205.9,193z"/>
	<rect x="116.7" y="26.2" class="st3" width="59.7" height="5.3"/>
	<path class="st5" d="M172.5,43.3h-52c-1.1,0-2.1-0.9-2.1-2.1v-9.7h56.1v9.7C174.5,42.3,173.6,43.3,172.5,43.3z"/>
	<g>
		<g>
			<path d="M118.2,80.5c-0.2-0.3-0.2-0.7,0.1-1c1.4-1.4,2.9-2.7,4.6-4.1c1.9-1.5,4-2.8,6.2-4c2.3-1.2,4.8-2.1,7.5-2.8
				c2.7-0.7,5.7-1.1,9-1.1c3.7,0,7.4,0.6,10.9,1.8c3.6,1.2,6.2,3,8.9,5.2c2.7,2.2,5,5.1,6.7,8.3c1.7,3.2,2.4,6.5,2.4,10.6
				c0,4.6-0.7,8.7-2.2,12.1c-1.5,3.4-3.1,6.2-5.4,8.8c-2.2,2.6-4.6,5-7.2,6.9c-2.7,2-5,4-7.3,5.7c-2.3,1.7-5,3.6-6.5,5.3
				c-1.6,1.8-1.7,3.5-1.8,5.7l-0.1,15.1c0,0.4-0.8,0.7-1.2,0.7l0,0c-0.4,0-1.2-0.3-1.2-0.7l-0.2-14.5c0-2.4,0.3-5.1,1.8-6.9
				c1.5-1.9,3.8-3.4,6.1-5.1c2.3-1.8,5.1-4,7.6-6.1c2.5-2.2,4.9-4.2,7.2-6.7c2.3-2.5,3.9-5.1,5.4-8.4c1.5-3.2,2.2-6.7,2.2-11.3
				c0-3.8-0.8-7.4-2.3-10.4c-1.5-3-3.6-5.5-5.8-7.3c-2.8-2.2-4.6-3.5-8-4.9c-3.2-1.3-6.6-1.7-10.1-1.7c-4.4,0-7.9,0.5-11.1,1.8
				c-3.2,1.2-5.9,2.5-7.9,4.2c-1.8,1.5-3.7,3.1-4.9,4.1c-1.5,1.3-2.4,1.3-2.5,1.3c-0.2-0.1-0.5-0.1-0.7-0.4L118.2,80.5z"/>
		</g>
		<g>
			<g>
				<path class="st3" d="M150.8,160.2l-3.2,6.8c-1.1,2.7-4.1,4.2-6.9,3.2l-2-0.7l-0.4-1.9c-0.6-3,1.4-6,4.3-6.6L150.8,160.2z"/>
				<line class="st6" x1="138.7" y1="169.5" x2="150.8" y2="160.2"/>
				<line class="st6" x1="145.3" y1="164.5" x2="149" y2="164.2"/>
				<line class="st6" x1="140.6" y1="168" x2="147.4" y2="167.5"/>
				<line class="st6" x1="142.4" y1="166.5" x2="142.1" y2="161.1"/>
			</g>
		</g>
	</g>
</g>
<g id="Layer_2">
</g>
</svg>
