<?xml version="1.0" encoding="utf-8"?>
<!-- Generator: Adobe Illustrator 22.0.1, SVG Export Plug-In . SVG Version: 6.00 Build 0)  -->
<svg version="1.1" xmlns="http://www.w3.org/2000/svg" xmlns:xlink="http://www.w3.org/1999/xlink" x="0px" y="0px"
	 viewBox="0 0 151.3 272.9" style="enable-background:new 0 0 151.3 272.9;" xml:space="preserve">
<style type="text/css">
	.st0{display:none;}
	.st1{display:inline;}
	.st2{fill:#FFFFFF;stroke:#000000;stroke-width:3;stroke-miterlimit:10;}
	.st3{fill:#FFFFFF;stroke:#000000;stroke-width:2;stroke-miterlimit:10;}
	.st4{display:inline;fill:none;stroke:#000000;stroke-width:5;stroke-miterlimit:10;}
	.st5{fill:#FFFFFF;}
	.st6{fill:none;stroke:#000000;stroke-width:2;stroke-miterlimit:10;}
	.st7{fill:none;stroke:#000000;stroke-width:3;stroke-miterlimit:10;}
</style>
<g id="Layer_1">
	<g>
		<g>
			<path d="M13.6,55.4c-0.5-0.6-0.4-1.5,0.1-2.1c3-3,6.3-6,9.9-8.9c4.1-3.3,8.6-6.2,13.6-8.8c5-2.6,10.5-4.7,16.4-6.2
				c5.9-1.5,12.4-2.3,19.5-2.3c8.1,0,16.1,1.3,23.8,3.9c7.7,2.6,14.6,6.3,20.5,11.2c5.9,4.9,10.7,10.8,14.3,17.8s5.4,15,5.4,23.9
				c0,10-1.6,18.7-4.9,26.1c-3.3,7.4-7.4,13.9-12.3,19.4c-4.9,5.5-10.3,10.4-16.1,14.7c-5.8,4.3-11.2,8.3-16.1,12.1
				c-4.9,3.8-9.1,7.6-12.5,11.5c-3.4,3.9-5.2,8.2-5.3,13l-1.1,32.8c0,0.9-0.7,1.6-1.6,1.6l0,0c-0.9,0-1.6-0.7-1.6-1.6l-1.3-31.7
				c0-5.2,0.7-11,4-15.1c3.3-4.1,8.3-7.3,13.3-11.2c5-3.9,11.2-8.7,16.6-13.2c5.5-4.7,10.7-9.1,15.7-14.6c5-5.5,8.5-11.2,11.8-18.3
				c3.3-7.1,4.8-14.6,4.8-24.5c0-8.3-1.7-16.2-5.1-22.7c-3.3-6.5-7.9-12.1-12.7-15.8c-6.1-4.8-10-7.7-17.5-10.8
				c-7-2.8-14.2-4.6-21.8-4.6c-9.5,0-17.7,1.3-24.6,4c-6.9,2.7-12.4,6.3-16.8,9.9c-3.9,3.2-7.4,7.2-9.8,9.8c-2.5,2.7-5.9,2-6.4,2
				c-0.5,0-1.1-0.3-1.6-0.8L13.6,55.4z"/>
		</g>
		<g>
			<g>
				<path class="st2" d="M84.5,228.9l-6.9,14.7c-2.3,6-9,9-15.1,6.9l-4.4-1.5l-0.8-4.1c-1.3-6.6,3.1-13,9.3-14.4L84.5,228.9z"/>
				<line class="st3" x1="58.1" y1="249" x2="84.5" y2="228.9"/>
				<line class="st3" x1="72.5" y1="238.2" x2="80.5" y2="237.6"/>
				<line class="st3" x1="62.3" y1="245.9" x2="77" y2="244.8"/>
				<line class="st3" x1="66.3" y1="242.6" x2="65.6" y2="230.9"/>
			</g>
		</g>
	</g>
</g>
<g id="Layer_2">
</g>
</svg>
