<?xml version="1.0" encoding="utf-8"?>
<!-- Generator: Adobe Illustrator 22.1.0, SVG Export Plug-In . SVG Version: 6.00 Build 0)  -->
<svg version="1.1" id="레이어_1" xmlns="http://www.w3.org/2000/svg" xmlns:xlink="http://www.w3.org/1999/xlink" x="0px"
	 y="0px" viewBox="0 0 297.3 220" style="enable-background:new 0 0 297.3 220;" xml:space="preserve">
<style type="text/css">
	.st0{fill:#FFFFFF;stroke:#000000;stroke-width:3;stroke-miterlimit:10;}
	.st1{fill:#FFFFFF;stroke:#000000;stroke-width:2;stroke-miterlimit:10;}
	.st2{fill:none;stroke:#000000;stroke-width:3;stroke-miterlimit:10;}
	.st3{fill:none;stroke:#000000;stroke-miterlimit:10;}
</style>
<g id="Layer_1">
</g>
<g id="Layer_3">
	<path class="st0" d="M170.4,197.5h-136c-2.1,0-3.7-1.7-3.7-3.7V21.6c0-2.1,1.7-3.7,3.7-3.7h136c2.1,0,3.7,1.7,3.7,3.7v172.2
		C174.2,195.8,172.5,197.5,170.4,197.5z"/>
	<path class="st1" d="M161.8,190H42.5c-2.1,0-3.9-1.7-3.9-3.9v-148c0-2.1,1.7-3.9,3.9-3.9h119.3c2.1,0,3.9,1.7,3.9,3.9v148
		C165.7,188.3,164,190,161.8,190z"/>
	<rect x="72.6" y="23.2" class="st1" width="59.7" height="5.3"/>
	<path class="st2" d="M128.4,40.3h-52c-1.1,0-2.1-0.9-2.1-2.1v-9.7h56.1v9.7C130.4,39.3,129.5,40.3,128.4,40.3z"/>
	<g>
		<g>
			<path d="M74.1,77.5c-0.2-0.3-0.2-0.7,0.1-1c1.4-1.4,2.9-2.7,4.6-4.1c1.9-1.5,4-2.8,6.2-4c2.3-1.2,4.8-2.1,7.5-2.8
				c2.7-0.7,5.7-1.1,9-1.1c3.7,0,7.4,0.6,10.9,1.8c3.6,1.2,6.2,3,8.9,5.2s5,5.1,6.7,8.3c1.7,3.2,2.4,6.5,2.4,10.6
				c0,4.6-0.7,8.7-2.2,12.1c-1.5,3.4-3.1,6.2-5.4,8.8c-2.2,2.6-4.6,5-7.2,6.9c-2.7,2-5,4-7.3,5.7c-2.3,1.7-5,3.6-6.5,5.3
				c-1.6,1.8-1.7,3.5-1.8,5.7L99.9,150c0,0.4-0.8,0.7-1.2,0.7l0,0c-0.4,0-1.2-0.3-1.2-0.7l-0.2-14.5c0-2.4,0.3-5.1,1.8-6.9
				c1.5-1.9,3.8-3.4,6.1-5.1c2.3-1.8,5.1-4,7.6-6.1c2.5-2.2,4.9-4.2,7.2-6.7s3.9-5.1,5.4-8.4c1.5-3.2,2.2-6.7,2.2-11.3
				c0-3.8-0.8-7.4-2.3-10.4s-3.6-5.5-5.8-7.3c-2.8-2.2-4.6-3.5-8-4.9c-3.2-1.3-6.6-1.7-10.1-1.7c-4.4,0-7.9,0.5-11.1,1.8
				c-3.2,1.2-5.9,2.5-7.9,4.2c-1.8,1.5-3.7,3.1-4.9,4.1c-1.5,1.3-2.4,1.3-2.5,1.3c-0.2-0.1-0.5-0.1-0.7-0.4L74.1,77.5z"/>
		</g>
		<g>
			<g>
				<path class="st1" d="M106.7,157.2l-3.2,6.8c-1.1,2.7-4.1,4.2-6.9,3.2l-2-0.7l-0.4-1.9c-0.6-3,1.4-6,4.3-6.6L106.7,157.2z"/>
				<line class="st3" x1="94.6" y1="166.5" x2="106.7" y2="157.2"/>
				<line class="st3" x1="101.2" y1="161.5" x2="104.9" y2="161.2"/>
				<line class="st3" x1="96.5" y1="165" x2="103.3" y2="164.5"/>
				<line class="st3" x1="98.3" y1="163.5" x2="98" y2="158.1"/>
			</g>
		</g>
	</g>
</g>
<g id="Layer_2">
</g>
</svg>
